<svg width="20" height="20" viewBox="0 0 20 20" fill="none" xmlns="http://www.w3.org/2000/svg">
<path d="M13.78 6.88599C14.073 7.17899 14.073 7.65402 13.78 7.94702L9.11298 12.614C8.96698 12.76 8.77501 12.834 8.58301 12.834C8.39101 12.834 8.19898 12.761 8.05298 12.614L5.71997 10.281C5.42697 9.98801 5.42697 9.51297 5.71997 9.21997C6.01297 8.92697 6.48801 8.92697 6.78101 9.21997L8.58398 11.023L12.72 6.88702C13.013 6.59402 13.487 6.59399 13.78 6.88599ZM19.5 4.125V15.375C19.5 18.035 18.035 19.5 15.375 19.5H4.125C1.465 19.5 0 18.035 0 15.375V4.125C0 1.465 1.465 0 4.125 0H15.375C18.035 0 19.5 1.465 19.5 4.125ZM18 4.125C18 2.285 17.215 1.5 15.375 1.5H4.125C2.285 1.5 1.5 2.285 1.5 4.125V15.375C1.5 17.215 2.285 18 4.125 18H15.375C17.215 18 18 17.215 18 15.375V4.125Z" fill="#39B56A"/>
</svg>
