<svg width="32" height="32" viewBox="0 0 32 32" fill="none" xmlns="http://www.w3.org/2000/svg">
<path d="M29 12.9278C29 11.5452 28.2745 10.3237 27.0612 9.66107L18.432 4.95307C16.9106 4.12373 15.0934 4.1224 13.568 4.95307L4.9388 9.66107C3.72547 10.3237 3 11.5452 3 12.9278C3 14.3105 3.72547 15.5318 4.9388 16.1944L7 17.3185V22.2651C7 23.5397 7.65338 24.7105 8.74805 25.3998C11.1547 26.9132 13.5773 27.6705 16 27.6705C18.4227 27.6705 20.8466 26.9145 23.252 25.3998C24.3453 24.7118 25 23.5397 25 22.2651V17.3185L27 16.2278V21.3331C27 21.8851 27.448 22.3331 28 22.3331C28.552 22.3331 29 21.8851 29 21.3331V13.3331C29 13.2771 28.9761 13.2265 28.9681 13.1731C28.9734 13.0891 29 13.0132 29 12.9278ZM23 22.2651C23 22.8384 22.6895 23.3918 22.1882 23.7065C18.0255 26.3238 13.9788 26.3252 9.81348 23.7065C9.31214 23.3918 9.0013 22.8384 9.0013 22.2651V18.4091L13.5693 20.9011C14.3307 21.3171 15.1653 21.5252 16.0013 21.5252C16.8373 21.5252 17.6719 21.3171 18.4333 20.9011L23.0013 18.4091V22.2651H23ZM26.1025 14.4397L17.4733 19.1477C16.552 19.6517 15.4467 19.6517 14.5254 19.1477L5.89616 14.4397C5.33349 14.1331 4.9987 13.5691 4.9987 12.9291C4.9987 12.2891 5.33349 11.7251 5.89616 11.4184L14.5254 6.71039C14.9867 6.45972 15.4934 6.33311 15.9987 6.33311C16.504 6.33311 17.012 6.45972 17.472 6.71039L26.1012 11.4184C26.6639 11.7251 26.9987 12.2891 26.9987 12.9291C26.9987 13.5691 26.6652 14.1331 26.1025 14.4397Z" fill="#3283FF"/>
</svg>
