<svg width="18" height="18" viewBox="0 0 18 18" fill="none" xmlns="http://www.w3.org/2000/svg">
<path d="M9.75 6V8.68945L11.0303 9.96973C11.3235 10.263 11.3235 10.737 11.0303 11.0303C10.884 11.1765 10.692 11.25 10.5 11.25C10.308 11.25 10.116 11.1765 9.96973 11.0303L8.46973 9.53027C8.32873 9.38927 8.25 9.19875 8.25 9V6C8.25 5.586 8.58525 5.25 9 5.25C9.41475 5.25 9.75 5.586 9.75 6ZM11.25 5.25C11.25 5.664 11.5852 6 12 6H15C15.4148 6 15.75 5.664 15.75 5.25V2.25C15.75 1.836 15.4148 1.5 15 1.5C14.5852 1.5 14.25 1.836 14.25 2.25V3.69745C12.8625 2.30845 10.9831 1.5 8.98059 1.5C4.85634 1.5 1.5 4.8645 1.5 9C1.5 13.1355 4.85634 16.5 8.98059 16.5C11.8478 16.5 14.4127 14.9025 15.6735 12.33C15.8557 11.958 15.7027 11.5088 15.3307 11.3265C14.9587 11.1443 14.5088 11.298 14.3273 11.67C13.32 13.7243 11.2718 15 8.98059 15C5.68359 15 3 12.3082 3 9C3 5.69175 5.68284 3 8.98059 3C10.4558 3 11.8515 3.54525 12.9293 4.5H12C11.5852 4.5 11.25 4.836 11.25 5.25Z" fill="#9C9EB7"/>
</svg>
